<?xml version="1.0" encoding="UTF-8"?><svg id="Layer_1" xmlns="http://www.w3.org/2000/svg" viewBox="0 0 116.1 127.2"><defs><style>.cls-1{fill:#62bc4b;}.cls-2{fill:#91e6d2;}.cls-3{fill:#fdfefe;}.cls-4{fill:#000100;isolation:isolate;opacity:.99;}.cls-5{fill:#145631;}.cls-6{fill:#91e7d3;}.cls-7{fill:#bddc51;}.cls-8{fill:#5a6927;}.cls-9{fill:#218e52;}.cls-10{fill:#f8e17b;}.cls-11{fill:#218d51;}.cls-12{fill:#61bd4b;}.cls-13{fill:#c3952f;}.cls-14{fill:#efb232;}.cls-15{fill:#060603;}.cls-16{fill:#fefffe;}.cls-17{fill:#ebaf31;}.cls-18{fill:#3bc7b8;}</style></defs><path class="cls-4" d="M40.12,.03c12.44-.43,23.25,3.5,32.43,11.79,2.78,2.57,5.29,5.35,7.52,8.36,14.9,5.87,25.51,16.15,31.85,30.84,4.47,11.08,5.36,22.44,2.67,34.1-2.14,8.66-6.29,16.15-12.45,22.48,1.78,.21,3.57,.41,5.35,.59-.14,.73-.53,1.32-1.17,1.76-9.43,7.82-20.29,11.22-32.6,10.2-1.23-.11-2.46-.23-3.68-.33,3.37,1.44,6.83,2.64,10.36,3.59,.06,.4-.11,.65-.5,.75-6.22,2.55-12.68,3.5-19.39,2.84-14.63-1.58-26.19-8.3-34.69-20.14,.38,1.7,.69,3.43,.92,5.18-.59-.07-1.09-.32-1.5-.75-9.12-9.19-13.66-20.3-13.62-33.35-1.44,3.36-2.77,6.76-4.01,10.2-.22,.22-.45,.22-.67,0-1.25-2.88-1.97-5.89-2.17-9.03-1.01-10.24,1.81-19.24,8.44-27-4.15-.1-7.99-1.22-11.53-3.34-.68-.45-1.23-1.01-1.67-1.67,.02-.13,.08-.24,.17-.33,3.07-.73,6.03-1.79,8.86-3.18,2.86-1.46,5.65-3.05,8.36-4.76-5.77-1.02-10.54-3.75-14.29-8.19-.7-.95-1.31-1.95-1.84-3.01-.08-.33-.11-.66-.08-1,2.54,.54,5.1,.95,7.69,1.25,6.01,.5,11.81-.39,17.39-2.67-5.58-1.24-10.46-3.78-14.63-7.61-.96-1.12-1.85-2.29-2.67-3.51-.19-.31-.27-.64-.25-1,4.32,.81,8.66,1,13.04,.59,4.62-.64,9.25-1.26,13.87-1.84,2.03-.16,4.06-.24,6.1-.25,2.2,.07,4.4,.1,6.6,.08-3.67-3.73-7.6-7.16-11.79-10.28-.12-.27-.09-.52,.08-.75,1.18-.29,2.35-.49,3.51-.59Z"/><path class="cls-7" d="M79.07,49.68c-.27,.11-.54,.19-.84,.25-3.23,2.22-6.26,4.7-9.11,7.44-1.34,1.56-2.59,3.18-3.76,4.85-.63,1.42-1.22,2.87-1.76,4.35-.21-.77-.38-1.55-.5-2.34-.06-1.39-.11-2.79-.17-4.18-.63,.91-1.19,1.85-1.67,2.84-.37,1.34-.76,2.68-1.17,4.01-.38-.22-.72-.49-1-.84-2.22-2.94-3.87-6.17-4.93-9.7-1.64,6.76-.78,13.16,2.59,19.22,.29,.26,.54,.54,.75,.84,.26,1.27,.65,2.49,1.17,3.68l-.17,.17c-5.82-6.31-8.94-13.77-9.36-22.4,.03-1.78,0-3.57-.08-5.35-.12,.09-.2,.2-.25,.33-3.09,11.27-.83,21.3,6.77,30.09,6.91,7.96,15.57,12.89,25.99,14.79,2.35,.12,4.69,.29,7.02,.5-10.18,2.59-19.88,1.36-29.09-3.68-1.45-.72-2.84-1.53-4.18-2.42-.06,.03-.11,.06-.17,.08,.8,1.11,1.69,2.14,2.67,3.09-.28,.22-.53,.16-.75-.17-.23,.18-.48,.2-.75,.08-7.89-4.38-13.6-10.7-17.13-18.97-.16-.61-.3-1.22-.42-1.84,.08-.17,.2-.2,.33-.08,3.02,4.19,6.64,7.75,10.87,10.7,.23,.21,.45,.24,.67,.08-2.07-2.69-3.88-5.53-5.43-8.53-3.25-7.61-4.25-15.52-3.01-23.74,.29-1.63,.63-3.24,1-4.85,.79-2.43,1.71-4.83,2.76-7.19-.03-.06-.06-.11-.08-.17-3.23,2.9-5.91,6.24-8.02,10.03l-.17,.17c-.15-1.38,.01-2.71,.5-4.01,2.08-5.62,5.17-10.58,9.28-14.88-.33-.15-.66-.12-1,.08-8.46,3.41-15.51,8.9-21.15,16.47-.12,.21-.2,.21-.25,0,.51-1.3,1.15-2.53,1.92-3.68,.92-1.17,1.75-2.39,2.51-3.68,1.01-1.07,1.96-2.18,2.84-3.34,1.42-.94,2.67-2.06,3.76-3.34,.31-.13,.59-.29,.84-.5,1.53-1.24,3.09-2.44,4.68-3.59,.27-.25,.3-.44,.08-.59-3.75,1.1-7.51,2.02-11.28,2.76-4.64,.22-9.27,.05-13.87-.5-.11-.06-.22-.11-.33-.17,.26-.04,.48-.12,.67-.25,3.4-.4,6.74-1.09,10.03-2.09,3.38-1.24,6.72-2.58,10.03-4.01,2.42-.87,4.87-1.62,7.36-2.26,1.29-.4,2.6-.73,3.93-1,.6,.24,1.18,.21,1.76-.08,1.62-.06,3.23-.11,4.85-.17-.93-.61-1.93-1.08-3.01-1.42-3.22-1.28-6.62-2.09-10.2-2.42-.14-.15-.31-.26-.5-.33-5.33-.12-10.62-.37-15.88-.75,3.7-.47,7.44-.89,11.2-1.25,6.9-.75,13.7-.24,20.39,1.5,1.82,.62,3.61,1.2,5.35,1.76-4.51-5.77-9.75-10.76-15.71-14.96,8.52,1.31,16.1,4.71,22.73,10.2,3.87,3.48,7.19,7.41,9.95,11.79,2.52,2.69,4.58,5.7,6.19,9.03,.42,.92,.7,1.87,.84,2.84-3.61,3.15-5.98,7.05-7.1,11.7Z"/><path class="cls-1" d="M25.24,17.08c5.26,.39,10.55,.64,15.88,.75,.2,.07,.36,.18,.5,.33,3.58,.34,6.98,1.14,10.2,2.42,1.07,.34,2.08,.82,3.01,1.42-1.62,.06-3.23,.11-4.85,.17-.57,.3-1.16,.32-1.76,.08-1.32,.27-2.63,.61-3.93,1-5.25-.26-10.49-.84-15.71-1.76-2.34-.54-4.62-1.27-6.85-2.17-1.25-.54-2.42-1.21-3.51-2.01,2.34-.1,4.68-.19,7.02-.25Z"/><path class="cls-18" d="M87.76,95.65c-.86-3.04-2.81-4.93-5.85-5.68-.75,.2-1.47,.48-2.17,.84-.1-.03-.18-.09-.25-.17,.04-1.5-.18-2.95-.67-4.35-1.39-3.24-3.81-4.52-7.27-3.84-.24-.02-.46-.08-.67-.17-1-5.68,.25-10.81,3.76-15.38,5.52-6.86,12.68-9.73,21.48-8.61,1.79,.4,3.57,.82,5.35,1.25,.48-6.94-1.61-12.96-6.27-18.05-1.62-1.46-3.29-2.85-5.01-4.18-1.54-3.69-3.46-7.14-5.77-10.36l.17-.17c13.97,7.71,22.8,19.35,26.5,34.94,2.52,13.67-.05,26.26-7.69,37.78-1.9,2.52-3.99,4.89-6.27,7.1-5.03,.24-9.93-.43-14.71-2.01-.19-.17-.13-.28,.17-.33,6.66-.72,11.87-3.82,15.63-9.28l.75-1.5c-.11-.06-.22-.11-.33-.17-3.5,1.34-7.13,2.12-10.87,2.34Z"/><path class="cls-1" d="M36.94,33.97c-3.61,1.05-7.29,1.75-11.03,2.09-5.98,.3-11.38-1.28-16.22-4.76,.08-.06,.17-.11,.25-.17,2.29,.36,4.61,.53,6.94,.5-.19,.13-.41,.22-.67,.25,.11,.06,.22,.11,.33,.17,4.61,.55,9.23,.72,13.87,.5,3.77-.74,7.54-1.66,11.28-2.76,.21,.14,.19,.34-.08,.59-1.6,1.16-3.16,2.36-4.68,3.59Z"/><path class="cls-12" d="M57.84,95.32c4.73,4.37,10.25,7.35,16.55,8.94,7.2,3.66,14.84,5.67,22.9,6.02-7.84,2.22-15.65,2.06-23.4-.5-10.95-3.7-20.28-9.8-28-18.3-2.3-2.77-4.5-5.62-6.6-8.53-4.28-8.2-6.09-16.95-5.43-26.25-1.46,3.78-2.21,7.71-2.26,11.79,.21,5.24,1.02,10.34,2.42,15.3,1.08,3.05,2.11,6.11,3.09,9.19-1.07-1.24-2.02-2.58-2.84-4.01-5.57-9.89-7.24-20.45-5.01-31.68,1.01-3.92,2.35-7.71,4.01-11.37-.06-.08-.11-.17-.17-.25-4.95,3.9-9.08,8.52-12.37,13.87-.06-.11-.11-.22-.17-.33,.23-1.44,.6-2.83,1.09-4.18,1.05-2.24,2.19-4.41,3.43-6.52,.05,.21,.14,.21,.25,0,5.64-7.56,12.69-13.05,21.15-16.47,.34-.2,.67-.23,1-.08-4.1,4.3-7.2,9.26-9.28,14.88-.49,1.3-.66,2.64-.5,4.01l.17-.17c2.12-3.79,4.79-7.13,8.02-10.03,.03,.06,.06,.11,.08,.17-1.05,2.36-1.97,4.75-2.76,7.19-.37,1.61-.71,3.22-1,4.85-1.24,8.21-.24,16.13,3.01,23.74,1.55,2.99,3.37,5.84,5.43,8.53-.22,.15-.44,.12-.67-.08-4.23-2.95-7.85-6.51-10.87-10.7-.14-.12-.25-.09-.33,.08,.12,.62,.26,1.23,.42,1.84,3.53,8.27,9.24,14.59,17.13,18.97,.27,.12,.52,.09,.75-.08,.23,.33,.48,.38,.75,.17Z"/><path class="cls-15" d="M68.37,32.96c4.69-.07,7.26,2.24,7.69,6.94-.56,4.8-3.24,7.03-8.02,6.69-3.63-1.24-5.33-3.77-5.1-7.61,.51-3.21,2.32-5.22,5.43-6.02Z"/><path class="cls-9" d="M36.11,34.47c-1.09,1.29-2.34,2.4-3.76,3.34-.88,1.16-1.83,2.28-2.84,3.34-.75,1.28-1.59,2.51-2.51,3.68-.77,1.15-1.41,2.38-1.92,3.68-1.23,2.11-2.38,4.28-3.43,6.52-.49,1.35-.85,2.74-1.09,4.18,.06,.11,.11,.22,.17,.33,3.29-5.35,7.42-9.98,12.37-13.87,.06,.08,.11,.17,.17,.25-1.66,3.66-3,7.45-4.01,11.37-2.23,11.23-.55,21.79,5.01,31.68-2.8-4.04-4.89-8.44-6.27-13.21,.17,3.64,.95,7.15,2.34,10.53,7.59,18.06,20.65,30.24,39.2,36.53-12.1,.8-23.02-2.37-32.76-9.53-8.5-6.77-13.21-15.61-14.13-26.5,2.64,7.37,7.01,13.47,13.12,18.3,.11,.11,.22,.11,.33,0-11.18-13.89-14.83-29.57-10.95-47.06-3.72,6.1-5.73,12.73-6.02,19.89-.18,7.46,.74,14.79,2.76,21.98-.03,.08-.06,.17-.08,.25-2.13-3.53-3.63-7.32-4.51-11.37-1.18-5.9-1.57-11.87-1.17-17.89,.34-10.18,3.6-19.26,9.78-27.25-2.8,1.78-5.86,3.15-9.19,4.1-2.93,.62-5.89,.74-8.86,.33,2.3-.95,4.58-1.96,6.85-3.01,6.84-4.11,13.97-7.65,21.4-10.62Z"/><path class="cls-16" d="M70.71,35.64c1.86-.17,2.67,.67,2.42,2.51-.7,1.2-1.68,1.48-2.93,.84-1.01-1.31-.84-2.42,.5-3.34Z"/><path class="cls-10" d="M97.79,54.36c-.3,.13-.64,.13-1,0-.28-.03-.5-.14-.67-.33,.3-.05,.63-.08,1-.08-3.9-3.29-8.31-5.71-13.21-7.27-.16,.02-.3,.07-.42,.17-.07,.42-.27,.76-.59,1,.9-2.61,2.4-4.81,4.51-6.6,.29-.29,.62-.4,1-.33,5.25,3,8.37,7.48,9.36,13.46Z"/><path class="cls-14" d="M96.12,54.03c-4.4-1.97-9.03-3.03-13.87-3.18,.07-1.04,.29-2.04,.67-3.01,.32-.25,.51-.58,.59-1,.12-.09,.26-.15,.42-.17,4.9,1.56,9.3,3.98,13.21,7.27-.37,0-.71,.03-1,.08Z"/><path class="cls-12" d="M79.07,49.68c-.43,2.33-.43,4.67,0,7.02-1.36,1.22-2.75,2.42-4.18,3.59-6.49,6.04-9.13,13.48-7.94,22.32,.37,.87,.59,1.76,.67,2.67-5.12-4.18-8.57-9.47-10.36-15.88-.19,.73-.27,1.49-.25,2.26,.03,1.6,.2,3.19,.5,4.76-.21-.3-.46-.57-.75-.84-3.37-6.06-4.23-12.47-2.59-19.22,1.06,3.52,2.71,6.75,4.93,9.7,.29,.34,.62,.62,1,.84,.41-1.33,.8-2.67,1.17-4.01,.49-.99,1.04-1.93,1.67-2.84,.06,1.39,.11,2.79,.17,4.18,.12,.79,.29,1.57,.5,2.34,.54-1.48,1.12-2.93,1.76-4.35,1.17-1.67,2.42-3.29,3.76-4.85,2.85-2.74,5.88-5.22,9.11-7.44,.29-.06,.57-.14,.84-.25Z"/><path class="cls-17" d="M82.25,52.86c3.45,.06,6.79,.65,10.03,1.76-3.05,.34-6.05,.93-9.03,1.76-.16-.02-.3-.07-.42-.17-.36-1.09-.55-2.2-.59-3.34Z"/><path class="cls-8" d="M49.15,57.87c-.11-1.67-.22-3.34-.33-5.01,.05-.13,.13-.24,.25-.33,.08,1.78,.11,3.57,.08,5.35Z"/><path class="cls-13" d="M96.79,54.36c.37,.13,.7,.13,1,0,.21,.2,.21,.42,0,.67-.4-.14-.74-.37-1-.67Z"/><path class="cls-11" d="M8.36,77.43c-.17-1.64-.22-3.31-.17-5.01,.77-6.78,3.38-12.55,7.86-17.3-.99,3.63-1.91,7.28-2.76,10.95-2.06,3.62-3.71,7.41-4.93,11.37Z"/><path class="cls-9" d="M39.28,82.95c-.24-.22-.46-.47-.67-.75-.16-.1-.28-.04-.33,.17,1.52,4.13,3.66,7.89,6.44,11.28,8.74,10.46,19.86,16.9,33.35,19.31,3.56,.47,7.13,.8,10.7,1-9.26,2.77-18.35,2.26-27.25-1.5-9.84-4.35-17.97-10.84-24.41-19.47-.98-3.08-2.01-6.14-3.09-9.19-1.4-4.96-2.21-10.06-2.42-15.3,.05-4.08,.8-8.01,2.26-11.79-.65,9.29,1.16,18.04,5.43,26.25Z"/><path class="cls-6" d="M105.15,64.73c2.01,.07,2.77,1.08,2.26,3.01-.67,.93-1.53,1.18-2.59,.75-1.42-1.39-1.31-2.65,.33-3.76Z"/><path class="cls-3" d="M88.26,83.95c-.22,.06-.22,.11,0,.17,1.97,2.32,4.48,3.24,7.52,2.76,1.83-.92,3.61-1.92,5.35-3.01,1.53-.22,2.92,.12,4.18,1,.66,.65,.63,1.29-.08,1.92-4.63,3.48-9.84,4.74-15.63,3.76-7.19-2.06-10.62-6.83-10.28-14.29,1.45-6.22,5.33-9.78,11.62-10.7,4.93,.22,8.13,2.67,9.61,7.36,.66,3.2-.15,5.96-2.42,8.27-1.32,1.07-2.83,1.46-4.51,1.17-1.39-.61-2.23-1.67-2.51-3.18,.04-.21,.15-.38,.33-.5,2.86,.04,4-1.32,3.43-4.1-.68-1.32-1.77-1.99-3.26-2.01-1.93,.17-3.35,1.12-4.26,2.84-1.43,3.03-1.13,5.87,.92,8.53Z"/><path class="cls-5" d="M8.19,72.41c-.05,1.7,0,3.37,.17,5.01-.01,.09-.07,.15-.17,.17-.22-1.75-.22-3.48,0-5.18Z"/><path class="cls-2" d="M87.76,95.65c-7.63,.36-14.26-2.01-19.89-7.1,1.01,.26,2.01,.6,3.01,1,.85,.16,1.68,.35,2.51,.59l.17-.17c-1.33-2.42-2.22-4.98-2.67-7.69,.21,.09,.43,.15,.67,.17,3.46-.68,5.88,.6,7.27,3.84,.49,1.4,.71,2.85,.67,4.35,.07,.08,.15,.13,.25,.17,.7-.36,1.42-.63,2.17-.84,3.04,.75,4.99,2.65,5.85,5.68Z"/></svg>